# xmcd
#
# Track frame offsets:
#	150
#	21001
#	35781
#	55966
#	71159
#	87232
#	103809
#	122757
#	135329
#	152058
#	170757
#	187040
#
# Disc length: 2727 seconds
# Revision: 0
# Processed by: cddbd v1.5.2PL0 Copyright (c) Steve Scherf et al.
# Submitted via: dBpowerAMP V12.0
#
DISCID=aa0aa50c
DTITLE=Rihanna - Good Girl Gone Bad
DYEAR=1900
DGENRE=
TTITLE0=Umbrella
TTITLE1=Push Up On Me
TTITLE2=Don't Stop The Music
TTITLE3=Breakin' Dishes
TTITLE4=Shut Up And Drive
TTITLE5=Hate That I Love You
TTITLE6=Say It
TTITLE7=Sell Me Candy
TTITLE8=Lemme Get That
TTITLE9=Rehab
TTITLE10=Question Existing
TTITLE11=Good Girl Gone Bad
EXTD=
EXTT0=
EXTT1=
EXTT2=
EXTT3=
EXTT4=
EXTT5=
EXTT6=
EXTT7=
EXTT8=
EXTT9=
EXTT10=
EXTT11=
PLAYORDER=
